<svg width="47" height="41" viewBox="0 0 47 41" fill="none" xmlns="http://www.w3.org/2000/svg">
<path d="M0 21.7267L23.5 0.000305176L47 21.7267L46.1132 23.0569L23.5 4.87766L0.443396 23.0569L0 21.7267Z" fill="#3C404C"/>
<path fill-rule="evenodd" clip-rule="evenodd" d="M9.1526 16.19L0.443359 23.0569L11.0849 35.0286H23.5H35.9151L46.1132 23.0569L37.3316 15.9972L38.5755 7.98144H37.6887L34.8011 13.9629L23.5 4.87766L11.5886 14.2693L8.86792 8.42483H7.98113L9.1526 16.19ZM9.1526 16.19L11.8608 34.1418H20.8396L11.5886 14.2693L9.1526 16.19ZM34.8011 13.9629L25.2736 33.6984H34.5849L37.3316 15.9972L34.8011 13.9629ZM20.3962 26.1607V16.406H21.283V20.8399H24.8302V16.406H25.717V25.7366H24.8302V21.7267H21.283V26.1607H20.3962Z" fill="#616774"/>
<path d="M16.8491 31.8466L23.0567 25.2739L29.2642 31.8466L28.8208 32.5508L28.3774 33.255H23.0567H17.7359L17.1776 32.3682L16.8491 31.8466Z" fill="#838B9A"/>
<path fill-rule="evenodd" clip-rule="evenodd" d="M19.5093 16.406H20.3961V20.8399H25.7168V16.406H26.6036V25.7366H25.7168V21.7267H20.3961V26.1607H19.5093V16.406Z" fill="#3C404C"/>
<path fill-rule="evenodd" clip-rule="evenodd" d="M26.1602 33.6984L38.5753 7.98144L35.4715 33.6984H26.1602ZM28.8208 33.255L33.2547 28.8211L34.1415 33.255H28.8208Z" fill="#3C404C"/>
<path fill-rule="evenodd" clip-rule="evenodd" d="M19.9527 34.1418L7.98096 8.42484L10.9739 34.1418H19.9527ZM17.2923 33.255L12.8583 28.8211L11.9715 33.255H17.2923Z" fill="#3C404C"/>
<path d="M9.51221 33.255H37.4145L35.915 35.0286H11.0848L9.51221 33.255Z" fill="#3D414D"/>
<path d="M5.32057 38.5758L11.0847 35.0286H23.0564H35.9149L41.2357 38.5758L43.896 40.3494C43.896 40.3494 31.2242 38.5758 23.0564 38.5758C14.8886 38.5758 2.2168 40.3494 2.2168 40.3494L5.32057 38.5758Z" fill="#616774"/>
<path d="M32.3682 35.0286H35.9153L43.8965 40.3494L36.8021 39.4626L32.3682 35.0286Z" fill="#3D414D"/>
</svg>
