<svg width="220" height="151" viewBox="0 0 220 151" fill="none" xmlns="http://www.w3.org/2000/svg">
<path d="M3 0.5H217C218.381 0.5 219.5 1.61929 219.5 3V148C219.5 149.381 218.381 150.5 217 150.5H3C1.61929 150.5 0.5 149.381 0.5 148V113.25V68.5V51.5V3C0.5 1.61929 1.61929 0.5 3 0.5Z" stroke="#3C404C"/>
<path d="M78.3173 9.5H141.725C147.421 9.5 151.837 14.4789 151.157 20.1347L137.563 133.135C136.989 137.908 132.939 141.5 128.131 141.5H92.3361C87.5416 141.5 83.4986 137.928 82.9083 133.17L68.8895 20.1696C68.1865 14.5024 72.6066 9.5 78.3173 9.5Z" stroke="#3C404C"/>
<mask id="path-3-inside-1_450_97" fill="white">
<path d="M35 19C35 13.4772 39.4772 9 45 9H52C57.5228 9 62 13.4772 62 19V132C62 137.523 57.5228 142 52 142H45C39.4772 142 35 137.523 35 132V19Z"/>
</mask>
<path d="M35 9H62H35ZM62 132C62 138.075 57.0751 143 51 143H45C38.9249 143 34 138.075 34 132H36C36 136.971 40.0294 141 45 141H52C57.5228 141 62 136.971 62 132ZM45 143C38.9249 143 34 138.075 34 132V20C34 13.9249 38.9249 9 45 9C40.0294 9 36 13.4772 36 19V132C36 136.971 40.0294 141 45 141V143ZM62 9V142V9Z" fill="#3C404C" mask="url(#path-3-inside-1_450_97)"/>
<mask id="path-5-inside-2_450_97" fill="white">
<path d="M185 19C185 13.4772 180.523 9 175 9H168C162.477 9 158 13.4772 158 19V132C158 137.523 162.477 142 168 142H175C180.523 142 185 137.523 185 132V19Z"/>
</mask>
<path d="M185 9H158H185ZM158 132C158 138.075 162.925 143 169 143H175C181.075 143 186 138.075 186 132H184C184 136.971 179.971 141 175 141H168C162.477 141 158 136.971 158 132ZM175 143C181.075 143 186 138.075 186 132V20C186 13.9249 181.075 9 175 9C179.971 9 184 13.4772 184 19V132C184 136.971 179.971 141 175 141V143ZM158 9V142V9Z" fill="#3C404C" mask="url(#path-5-inside-2_450_97)"/>
</svg>
