<svg width="220" height="151" viewBox="0 0 220 151" fill="none" xmlns="http://www.w3.org/2000/svg">
<path d="M219.5 75.5V148C219.5 149.381 218.381 150.5 217 150.5H3C1.61929 150.5 0.5 149.381 0.5 148V75.5V37.75V3C0.5 1.61929 1.61929 0.5 3 0.5H27.5H55H110H217C218.381 0.5 219.5 1.61929 219.5 3V46V75.5Z" stroke="#3C404C"/>
<path d="M123.5 18.4999L123.96 18.6955L123.96 18.6952L123.961 18.6938L123.963 18.6877L123.974 18.663L124.016 18.565C124.054 18.479 124.109 18.3527 124.181 18.1924C124.324 17.872 124.531 17.4163 124.787 16.8771C125.3 15.7973 126.006 14.3887 126.784 13.0616C127.567 11.7239 128.401 10.5099 129.162 9.78837C129.546 9.42388 129.865 9.23171 130.107 9.17389C130.302 9.12714 130.462 9.16011 130.638 9.34516C133.608 12.458 137.079 18.8825 139.815 25.7613C142.549 32.6383 144.5 39.848 144.5 44.5C144.5 63.8299 128.83 79.5 109.5 79.5C90.17 79.5 74.5 63.8299 74.5 44.5C74.5 25.17 90.17 9.49996 109.5 9.49996C110.972 9.49996 112.557 10.0519 114.13 10.9219C115.698 11.7891 117.22 12.952 118.556 14.1256C119.891 15.2979 121.032 16.4717 121.839 17.3532C122.242 17.7936 122.561 18.1601 122.779 18.4159C122.888 18.5438 122.971 18.6439 123.027 18.7117C123.055 18.7456 123.076 18.7714 123.09 18.7885L123.106 18.8076L123.109 18.8121L123.11 18.8131L123.11 18.8132L123.11 18.8132L123.633 19.464L123.96 18.6955L123.5 18.4999Z" stroke="#3C404C"/>
<path d="M184.5 142L172.12 100.162C170.862 95.9146 166.96 93 162.531 93H136.737C134.945 93 133.186 93.4815 131.644 94.3942L114.593 104.486C111.452 106.345 107.548 106.345 104.407 104.486L87.3558 94.3942C85.8136 93.4815 84.0546 93 82.2626 93H57.6175C53.1176 93 49.1719 96.0056 47.9767 100.344L36.5 142" stroke="#3C404C" stroke-linecap="round"/>
</svg>
