<svg width="220" height="151" viewBox="0 0 220 151" fill="none" xmlns="http://www.w3.org/2000/svg">
<path d="M3 0.5H217C218.381 0.5 219.5 1.61929 219.5 3V75.5V97V148C219.5 149.381 218.381 150.5 217 150.5H3C1.61929 150.5 0.5 149.381 0.5 148V3C0.5 1.61929 1.61929 0.5 3 0.5Z" stroke="#3C404C"/>
<mask id="path-2-inside-1_450_95" fill="white">
<path d="M68 28C68 22.4772 72.4772 18 78 18H92C97.5228 18 102 22.4772 102 28V124C102 129.523 97.5228 134 92 134H78C72.4772 134 68 129.523 68 124V28Z"/>
</mask>
<path d="M67 28C67 21.9249 71.9249 17 78 17H91C97.0751 17 102 21.9249 102 28C102 23.0294 97.5228 19 92 19H78C73.0294 19 69 23.0294 69 28H67ZM102 124C102 130.075 97.0751 135 91 135H78C71.9249 135 67 130.075 67 124H69C69 128.971 73.0294 133 78 133H92C97.5228 133 102 128.971 102 124ZM78 135C71.9249 135 67 130.075 67 124V28C67 21.9249 71.9249 17 78 17V19C73.0294 19 69 23.0294 69 28V124C69 128.971 73.0294 133 78 133V135ZM102 18V134V18Z" fill="#3C404C" mask="url(#path-2-inside-1_450_95)"/>
<mask id="path-4-inside-2_450_95" fill="white">
<path d="M154 28C154 22.4772 149.523 18 144 18H130C124.477 18 120 22.4772 120 28V124C120 129.523 124.477 134 130 134H144C149.523 134 154 129.523 154 124V28Z"/>
</mask>
<path d="M155 28C155 21.9249 150.075 17 144 17H131C124.925 17 120 21.9249 120 28C120 23.0294 124.477 19 130 19H144C148.971 19 153 23.0294 153 28H155ZM120 124C120 130.075 124.925 135 131 135H144C150.075 135 155 130.075 155 124H153C153 128.971 148.971 133 144 133H130C124.477 133 120 128.971 120 124ZM144 135C150.075 135 155 130.075 155 124V28C155 21.9249 150.075 17 144 17V19C148.971 19 153 23.0294 153 28V124C153 128.971 148.971 133 144 133V135ZM120 18V134V18Z" fill="#3C404C" mask="url(#path-4-inside-2_450_95)"/>
</svg>
