<svg width="220" height="151" viewBox="0 0 220 151" fill="none" xmlns="http://www.w3.org/2000/svg">
<path d="M3 0.5H217C218.381 0.5 219.5 1.61929 219.5 3V148C219.5 149.381 218.381 150.5 217 150.5H3C1.61929 150.5 0.5 149.381 0.5 148V76V3C0.5 1.61929 1.61929 0.5 3 0.5Z" stroke="#3C404C"/>
<mask id="path-2-inside-1_450_96" fill="white">
<path d="M67 28C67 22.4772 71.4772 18 77 18H91C96.5228 18 101 22.4772 101 28V124C101 129.523 96.5228 134 91 134H77C71.4772 134 67 129.523 67 124V28Z"/>
</mask>
<path d="M66 28C66 21.9249 70.9249 17 77 17H90C96.0751 17 101 21.9249 101 28C101 23.0294 96.5228 19 91 19H77C72.0294 19 68 23.0294 68 28H66ZM101 124C101 130.075 96.0751 135 90 135H77C70.9249 135 66 130.075 66 124H68C68 128.971 72.0294 133 77 133H91C96.5228 133 101 128.971 101 124ZM77 135C70.9249 135 66 130.075 66 124V28C66 21.9249 70.9249 17 77 17V19C72.0294 19 68 23.0294 68 28V124C68 128.971 72.0294 133 77 133V135ZM101 18V134V18Z" fill="#3C404C" mask="url(#path-2-inside-1_450_96)"/>
<mask id="path-4-inside-2_450_96" fill="white">
<path d="M153 28C153 22.4772 148.523 18 143 18H129C123.477 18 119 22.4772 119 28V124C119 129.523 123.477 134 129 134H143C148.523 134 153 129.523 153 124V28Z"/>
</mask>
<path d="M154 28C154 21.9249 149.075 17 143 17H130C123.925 17 119 21.9249 119 28C119 23.0294 123.477 19 129 19H143C147.971 19 152 23.0294 152 28H154ZM119 124C119 130.075 123.925 135 130 135H143C149.075 135 154 130.075 154 124H152C152 128.971 147.971 133 143 133H129C123.477 133 119 128.971 119 124ZM143 135C149.075 135 154 130.075 154 124V28C154 21.9249 149.075 17 143 17V19C147.971 19 152 23.0294 152 28V124C152 128.971 147.971 133 143 133V135ZM119 18V134V18Z" fill="#3C404C" mask="url(#path-4-inside-2_450_96)"/>
</svg>
