<svg width="220" height="151" viewBox="0 0 220 151" fill="none" xmlns="http://www.w3.org/2000/svg">
<path d="M0 3C0 1.34315 1.34315 0 3 0H27.5H55H110H217C218.657 0 220 1.34315 220 3V46V72.5V148C220 149.657 218.657 151 217 151H3C1.34314 151 0 149.657 0 148V75.5V37.75V3Z" fill="url(#paint0_linear_450_156)"/>
<path d="M109.5 80C89.8939 80 74 64.1061 74 44.5C74 24.8939 89.8939 8.99996 109.5 8.99996C115.863 8.99996 123.5 18.4999 123.5 18.4999C123.5 18.4999 128.606 6.49008 131 9.00004C137.078 15.3712 145 34.9997 145 44.5C145 64.1061 129.106 80 109.5 80Z" fill="url(#paint1_linear_450_156)"/>
<path d="M180.701 129.162L172.12 100.162C170.862 95.9146 166.96 93 162.531 93H136.737C134.945 93 133.186 93.4815 131.644 94.3942L114.593 104.486C111.452 106.345 107.548 106.345 104.407 104.486L87.3558 94.3942C85.8136 93.4815 84.0546 93 82.2626 93H57.6175C53.1176 93 49.1719 96.0056 47.9767 100.344L39.9869 129.344C38.2327 135.711 43.0232 142 49.6277 142H171.112C177.795 142 182.597 135.571 180.701 129.162Z" fill="black"/>
<defs>
<linearGradient id="paint0_linear_450_156" x1="6.24722e-07" y1="109" x2="288.5" y2="49" gradientUnits="userSpaceOnUse">
<stop stop-color="#B5BFDD"/>
<stop offset="0.577657" stop-color="#3C404C"/>
<stop offset="0.769586" stop-color="#3C404C"/>
</linearGradient>
<linearGradient id="paint1_linear_450_156" x1="74" y1="80" x2="145" y2="21" gradientUnits="userSpaceOnUse">
<stop/>
<stop offset="1"/>
</linearGradient>
</defs>
</svg>
