<svg width="220" height="151" viewBox="0 0 220 151" fill="none" xmlns="http://www.w3.org/2000/svg">
<path d="M0 3C0 1.34315 1.34315 0 3 0H27.5H55H110H217C218.657 0 220 1.34315 220 3V46V72.5V148C220 149.657 218.657 151 217 151H3C1.34314 151 0 149.657 0 148V75.5V37.75V3Z" fill="url(#paint0_linear_450_161)"/>
<path d="M68.3933 20.2312C67.6533 14.2656 72.306 9 78.3173 9H141.725C147.721 9 152.37 14.2409 151.653 20.1944L138.059 133.194C137.455 138.219 133.192 142 128.131 142H92.3361C87.2893 142 83.0335 138.24 82.4121 133.231L68.3933 20.2312Z" fill="black"/>
<path d="M35 19C35 13.4772 39.4772 9 45 9H52C57.5228 9 62 13.4772 62 19V132C62 137.523 57.5228 142 52 142H45C39.4772 142 35 137.523 35 132V19Z" fill="black"/>
<path d="M185 19C185 13.4772 180.523 9 175 9H168C162.477 9 158 13.4772 158 19V132C158 137.523 162.477 142 168 142H175C180.523 142 185 137.523 185 132V19Z" fill="black"/>
<defs>
<linearGradient id="paint0_linear_450_161" x1="6.24722e-07" y1="109" x2="288.5" y2="49" gradientUnits="userSpaceOnUse">
<stop stop-color="#B5BFDD"/>
<stop offset="0.577657" stop-color="#3C404C"/>
<stop offset="0.769586" stop-color="#3C404C"/>
</linearGradient>
</defs>
</svg>
